<?xml version="1.0" standalone="no"?>
<!DOCTYPE svg PUBLIC "-//W3C//DTD SVG 20010904//EN"
 "http://www.w3.org/TR/2001/REC-SVG-20010904/DTD/svg10.dtd">
<svg version="1.0" xmlns="http://www.w3.org/2000/svg"
 width="800.000000pt" height="800.000000pt" viewBox="0 0 800.000000 800.000000"
 preserveAspectRatio="xMidYMid meet">
<metadata>
Created by potrace 1.14, written by Peter Selinger 2001-2017
</metadata>
<g transform="translate(0.000000,800.000000) scale(0.100000,-0.100000)"
fill="#000000" stroke="none">
<path d="M0 6510 l0 -1490 322 2 322 3 252 437 253 438 -261 451 c-225 390
-259 454 -250 472 6 12 125 220 265 462 l255 440 540 3 540 2 267 -462 267
-462 -17 -29 c-9 -16 -15 -30 -13 -33 3 -2 34 9 69 25 181 82 526 178 779 218
165 26 655 26 820 0 275 -43 593 -135 825 -238 116 -52 296 -150 380 -206 59
-39 43 -54 156 142 l83 145 536 0 536 0 264 -457 c145 -252 264 -464 264 -473
0 -8 -114 -213 -253 -455 -140 -242 -255 -443 -257 -446 -4 -8 499 -878 509
-879 4 0 129 0 277 0 l270 0 0 1940 0 1940 -4000 0 -4000 0 0 -1490z"/>
<path d="M1188 7673 c-33 -39 -499 -858 -496 -873 2 -10 115 -211 252 -448
l249 -432 241 0 241 0 94 103 c231 252 484 452 777 616 101 56 114 67 139 112
21 40 25 56 18 72 -15 33 -463 808 -485 840 l-19 27 -498 0 c-462 0 -499 -1
-513 -17z"/>
<path d="M5800 6638 c-46 -79 -84 -146 -86 -149 -2 -4 47 -45 109 -91 442
-334 819 -840 998 -1341 12 -35 16 -38 47 -35 33 3 37 9 283 433 136 237 248
437 248 445 0 8 -111 209 -248 445 l-249 430 -510 3 -510 2 -82 -142z"/>
<path d="M938 5438 l-255 -441 110 -191 c60 -105 135 -234 165 -286 l56 -94
32 159 c90 446 278 871 538 1215 23 30 45 61 50 68 6 9 -40 12 -217 12 l-224
0 -255 -442z"/>
<path d="M4935 5170 c-118 -25 -202 -54 -300 -103 -348 -173 -588 -487 -672
-877 -25 -118 -25 -446 0 -573 81 -401 320 -722 658 -881 161 -76 256 -97 460
-103 134 -4 199 -2 279 11 178 28 367 101 520 201 67 43 140 109 140 125 0 9
-165 285 -181 304 -5 5 -25 -6 -47 -26 -109 -99 -279 -187 -411 -213 -65 -14
-115 -16 -220 -12 -143 5 -223 22 -344 73 -184 78 -345 244 -420 434 -93 237
-82 592 25 803 119 237 325 401 571 454 100 22 264 21 352 -2 134 -34 287
-123 413 -240 l58 -54 128 135 128 135 -17 26 c-52 79 -231 222 -360 286 -81
40 -221 86 -313 102 -120 21 -334 19 -447 -5z"/>
<path d="M2856 5162 c-6 -11 -966 -2491 -966 -2497 0 -3 88 -4 196 -3 l197 3
118 310 117 310 525 3 525 2 36 -92 c19 -51 73 -192 119 -313 l83 -220 208 -3
c117 -1 206 1 204 6 -1 5 -219 570 -482 1256 l-479 1246 -198 0 c-109 0 -200
-4 -203 -8z m278 -693 c46 -140 120 -351 166 -469 45 -118 93 -243 106 -277
l24 -63 -384 0 -383 0 98 258 c54 141 139 382 190 535 50 153 93 276 96 274 2
-3 41 -119 87 -258z"/>
<path d="M0 4090 l0 -880 322 2 321 3 174 300 173 300 0 161 c0 88 3 208 6
265 l6 104 -180 310 -180 310 -321 3 -321 2 0 -880z"/>
<path d="M6866 4928 c29 -82 83 -304 103 -423 61 -360 54 -758 -20 -1118 -11
-54 -19 -100 -17 -102 4 -4 468 800 468 811 0 5 -112 203 -249 439 -219 380
-251 430 -274 433 l-27 3 16 -43z"/>
<path d="M7443 4058 c-18 -23 -503 -867 -503 -875 0 -5 112 -201 249 -438
l248 -430 282 -3 281 -2 0 880 0 880 -274 0 c-207 0 -276 -3 -283 -12z"/>
<path d="M830 3446 l-165 -286 -332 0 -333 0 0 -1580 0 -1580 2795 0 2796 0
-25 43 c-13 23 -71 123 -129 222 l-104 180 -520 3 -519 2 -155 268 -154 267
-70 2 c-387 13 -793 106 -1138 259 -53 24 -101 44 -106 44 -4 0 -111 -178
-236 -395 l-228 -395 -538 0 -537 0 -258 448 c-142 246 -262 454 -267 463 -7
12 52 123 252 470 145 250 266 458 271 462 4 5 83 8 174 7 91 0 166 2 166 6 0
3 -22 43 -49 88 -81 135 -127 225 -180 348 -124 289 -183 510 -238 887 l-8 54
-165 -287z"/>
<path d="M6851 3030 c-109 -318 -275 -626 -477 -885 -127 -164 -353 -390 -511
-513 -40 -31 -73 -59 -73 -62 1 -3 22 -41 48 -85 l48 -80 521 -3 521 -2 258
-448 c141 -246 262 -454 267 -463 8 -13 -18 -65 -113 -230 -68 -118 -130 -224
-138 -236 l-14 -23 406 0 406 0 0 1130 0 1131 -292 -2 -293 -1 -255 440 c-140
242 -258 443 -261 447 -4 3 -25 -48 -48 -115z"/>
<path d="M910 1873 c-139 -241 -253 -442 -253 -448 1 -11 483 -846 503 -870
19 -22 1001 -23 1020 0 12 15 440 753 440 759 0 2 -48 32 -107 66 -126 73
-300 190 -393 265 -177 142 -387 357 -516 530 -42 55 -82 108 -90 118 -12 15
-34 17 -183 17 l-169 0 -252 -437z"/>
<path d="M5685 1504 c-144 -101 -390 -232 -571 -304 -297 -119 -735 -210
-1005 -210 -38 0 -69 -2 -69 -4 0 -8 263 -462 278 -479 14 -16 49 -17 514 -15
l500 3 254 440 c140 242 254 444 254 448 0 16 -85 157 -95 156 -5 0 -32 -16
-60 -35z"/>
<path d="M5632 910 c-140 -242 -252 -443 -250 -448 1 -5 62 -111 133 -236
l130 -226 745 0 745 0 133 230 c72 126 132 235 132 242 0 7 -112 207 -248 443
l-249 430 -509 2 -509 3 -253 -440z"/>
</g>
</svg>
